<?xml version="1.0" standalone="no"?>
<!DOCTYPE svg PUBLIC "-//W3C//DTD SVG 1.1//EN" "http://www.w3.org/Graphics/SVG/1.1/DTD/svg11.dtd">

<svg width="800" height="600" version="1.1" xmlns="http://www.w3.org/2000/svg">
	<ellipse stroke="black" stroke-width="1" fill="none" cx="42.5" cy="119.5" rx="30" ry="30"/>
	<text x="18.5" y="125.5" font-family="Times New Roman" font-size="20">eating</text>
	<ellipse stroke="black" stroke-width="1" fill="none" cx="345.5" cy="113.5" rx="30" ry="30"/>
	<text x="312.5" y="119.5" font-family="Times New Roman" font-size="20">sleeping</text>
	<ellipse stroke="black" stroke-width="1" fill="none" cx="221.5" cy="37.5" rx="30" ry="30"/>
	<text x="190.5" y="43.5" font-family="Times New Roman" font-size="20">hunting</text>
	<ellipse stroke="black" stroke-width="1" fill="none" cx="320.5" cy="296.5" rx="30" ry="30"/>
	<text x="285.5" y="302.5" font-family="Times New Roman" font-size="20">preening</text>
	<polygon stroke="black" stroke-width="1" points="194.226,49.994 69.774,107.006"/>
	<polygon fill="black" stroke-width="1" points="69.774,107.006 79.13,108.219 74.965,99.128"/>
	<text x="45.5" y="69.5" font-family="Times New Roman" font-size="20">catch prey</text>
	<polygon stroke="black" stroke-width="1" points="72.494,118.906 315.506,114.094"/>
	<polygon fill="black" stroke-width="1" points="315.506,114.094 307.408,109.253 307.606,119.251"/>
	<text x="143.5" y="138.5" font-family="Times New Roman" font-size="20">finishes prey</text>
	<polygon stroke="black" stroke-width="1" points="67.806,135.612 295.194,280.388"/>
	<polygon fill="black" stroke-width="1" points="295.194,280.388 291.131,271.874 285.76,280.309"/>
	<text x="73.5" y="229.5" font-family="Times New Roman" font-size="20">finishes prey</text>
	<polygon stroke="black" stroke-width="1" points="319.922,97.823 247.078,53.177"/>
	<polygon fill="black" stroke-width="1" points="247.078,53.177 251.286,61.62 256.512,53.094"/>
	<text x="288.5" y="66.5" font-family="Times New Roman" font-size="20">is hungry</text>
	<path stroke="black" stroke-width="1" fill="none" d="M 351.934,142.78 A 227.503,227.503 0 0 1 334.551,270.019"/>
	<polygon fill="black" stroke-width="1" points="334.551,270.019 342.389,264.768 333.266,260.673"/>
	<text x="359.5" y="215.5" font-family="Times New Roman" font-size="20">wakes up</text>
	<polygon stroke="black" stroke-width="1" points="309.789,268.477 232.211,65.523"/>
	<polygon fill="black" stroke-width="1" points="232.211,65.523 230.397,74.781 239.738,71.21"/>
	<text x="278.5" y="164.5" font-family="Times New Roman" font-size="20">sees prey</text>
</svg>